# xmcd
#
# Track frame offsets:
#	150
#	25822
#	42164
#	92852
#	114369
#	137959
#	188544
#	220906
#	249216
#	265417
#	277631
#	322752
#
# Disc length: 4754 seconds
#
# Revision: 1
# Processed by: cddbd v1.4PL0 Copyright (c) Steve Scherf et al.
# Submitted via: audiograbber 1.80
#
DISCID=9a12900c
DTITLE=Climax Blues Band - FM Live-LP
DYEAR=1900
DGENRE=
TTITLE0=all the time in the world
TTITLE1=i am constant
TTITLE2=flight
TTITLE3=seventh son
TTITLE4=standing by a river
TTITLE5=so many roads
TTITLE6=mesopopmania
TTITLE7=country hat
TTITLE8=you make me sick
TTITLE9=shake your love
TTITLE10=goin' to new york
TTITLE11=let's work together
EXTD=
EXTT0=
EXTT1=
EXTT2=
EXTT3=
EXTT4=
EXTT5=
EXTT6=
EXTT7=
EXTT8=
EXTT9=
EXTT10=
EXTT11=
PLAYORDER=
